<mxfile host="app.diagrams.net" modified="2023-09-21T18:34:09.637Z" agent="Mozilla/5.0 (Windows NT 10.0; Win64; x64; rv:109.0) Gecko/20100101 Firefox/117.0" etag="gPyju7vedrXCicfaOZBF" version="21.7.5" type="google">
  <diagram id="C5RBs43oDa-KdzZeNtuy" name="Page-1">
    <mxGraphModel grid="1" page="1" gridSize="10" guides="1" tooltips="1" connect="1" arrows="1" fold="1" pageScale="1" pageWidth="1920" pageHeight="1200" math="0" shadow="0">
      <root>
        <mxCell id="WIyWlLk6GJQsqaUBKTNV-0" />
        <mxCell id="WIyWlLk6GJQsqaUBKTNV-1" parent="WIyWlLk6GJQsqaUBKTNV-0" />
        <mxCell id="Hti1if6-eCWXI2BdiCpx-0" value="Livro" style="swimlane;childLayout=stackLayout;horizontal=1;startSize=50;horizontalStack=0;rounded=1;fontSize=14;fontStyle=0;strokeWidth=2;resizeParent=0;resizeLast=1;shadow=0;dashed=0;align=center;arcSize=4;whiteSpace=wrap;html=1;" vertex="1" parent="WIyWlLk6GJQsqaUBKTNV-1">
          <mxGeometry x="180" y="150" width="160" height="120" as="geometry" />
        </mxCell>
        <mxCell id="Hti1if6-eCWXI2BdiCpx-1" value="&lt;div&gt;codigo_livro (PK)&lt;br&gt;&lt;/div&gt;&lt;div&gt;titulo&lt;/div&gt;&lt;div&gt;situação&lt;/div&gt;&lt;div&gt;edição&lt;br&gt;&lt;/div&gt;" style="align=left;strokeColor=none;fillColor=none;spacingLeft=4;fontSize=12;verticalAlign=top;resizable=0;rotatable=0;part=1;html=1;" vertex="1" parent="Hti1if6-eCWXI2BdiCpx-0">
          <mxGeometry y="50" width="160" height="70" as="geometry" />
        </mxCell>
        <mxCell id="Hti1if6-eCWXI2BdiCpx-16" value="Autor" style="swimlane;childLayout=stackLayout;horizontal=1;startSize=50;horizontalStack=0;rounded=1;fontSize=14;fontStyle=0;strokeWidth=2;resizeParent=0;resizeLast=1;shadow=0;dashed=0;align=center;arcSize=4;whiteSpace=wrap;html=1;" vertex="1" parent="WIyWlLk6GJQsqaUBKTNV-1">
          <mxGeometry x="180" y="530" width="160" height="120" as="geometry" />
        </mxCell>
        <mxCell id="Hti1if6-eCWXI2BdiCpx-17" value="&lt;div&gt;CPF (PK)&lt;br&gt;&lt;/div&gt;&lt;div&gt;nome&lt;br&gt;&lt;/div&gt;" style="align=left;strokeColor=none;fillColor=none;spacingLeft=4;fontSize=12;verticalAlign=top;resizable=0;rotatable=0;part=1;html=1;" vertex="1" parent="Hti1if6-eCWXI2BdiCpx-16">
          <mxGeometry y="50" width="160" height="70" as="geometry" />
        </mxCell>
        <mxCell id="Hti1if6-eCWXI2BdiCpx-18" value="Emprestimo" style="swimlane;childLayout=stackLayout;horizontal=1;startSize=50;horizontalStack=0;rounded=1;fontSize=14;fontStyle=0;strokeWidth=2;resizeParent=0;resizeLast=1;shadow=0;dashed=0;align=center;arcSize=4;whiteSpace=wrap;html=1;" vertex="1" parent="WIyWlLk6GJQsqaUBKTNV-1">
          <mxGeometry x="1170" y="210" width="160" height="140" as="geometry" />
        </mxCell>
        <mxCell id="Hti1if6-eCWXI2BdiCpx-19" value="&lt;div&gt;cod_livro (FK)&lt;br&gt;&lt;/div&gt;&lt;div&gt;prazo&lt;br&gt;&lt;/div&gt;" style="align=left;strokeColor=none;fillColor=none;spacingLeft=4;fontSize=12;verticalAlign=top;resizable=0;rotatable=0;part=1;html=1;" vertex="1" parent="Hti1if6-eCWXI2BdiCpx-18">
          <mxGeometry y="50" width="160" height="90" as="geometry" />
        </mxCell>
        <mxCell id="Hti1if6-eCWXI2BdiCpx-21" value="Editora" style="swimlane;childLayout=stackLayout;horizontal=1;startSize=50;horizontalStack=0;rounded=1;fontSize=14;fontStyle=0;strokeWidth=2;resizeParent=0;resizeLast=1;shadow=0;dashed=0;align=center;arcSize=4;whiteSpace=wrap;html=1;" vertex="1" parent="WIyWlLk6GJQsqaUBKTNV-1">
          <mxGeometry x="530" y="340" width="160" height="120" as="geometry" />
        </mxCell>
        <mxCell id="Hti1if6-eCWXI2BdiCpx-22" value="&lt;div&gt;codigo_editora (PK)&lt;br&gt;&lt;/div&gt;&lt;div&gt;nome&lt;/div&gt;&lt;div&gt;endereço&lt;br&gt;&lt;/div&gt;" style="align=left;strokeColor=none;fillColor=none;spacingLeft=4;fontSize=12;verticalAlign=top;resizable=0;rotatable=0;part=1;html=1;" vertex="1" parent="Hti1if6-eCWXI2BdiCpx-21">
          <mxGeometry y="170" width="160" height="-50" as="geometry" />
        </mxCell>
        <mxCell id="Hti1if6-eCWXI2BdiCpx-23" value="Publicação" style="swimlane;childLayout=stackLayout;horizontal=1;startSize=50;horizontalStack=0;rounded=1;fontSize=14;fontStyle=0;strokeWidth=2;resizeParent=0;resizeLast=1;shadow=0;dashed=0;align=center;arcSize=4;whiteSpace=wrap;html=1;" vertex="1" parent="WIyWlLk6GJQsqaUBKTNV-1">
          <mxGeometry x="180" y="340" width="160" height="120" as="geometry" />
        </mxCell>
        <mxCell id="Hti1if6-eCWXI2BdiCpx-24" value="&lt;div&gt;codigo_livro(FK)&lt;/div&gt;&lt;div&gt;CPF (FK)&lt;/div&gt;&lt;div&gt;cod_editora (FK)&lt;/div&gt;" style="align=left;strokeColor=none;fillColor=none;spacingLeft=4;fontSize=12;verticalAlign=top;resizable=0;rotatable=0;part=1;html=1;" vertex="1" parent="Hti1if6-eCWXI2BdiCpx-23">
          <mxGeometry y="50" width="160" height="70" as="geometry" />
        </mxCell>
        <mxCell id="jt-Nz1Gy_Yde08XFpU1Q-0" value="Endereço" style="swimlane;childLayout=stackLayout;horizontal=1;startSize=50;horizontalStack=0;rounded=1;fontSize=14;fontStyle=0;strokeWidth=2;resizeParent=0;resizeLast=1;shadow=0;dashed=0;align=center;arcSize=4;whiteSpace=wrap;html=1;" vertex="1" parent="WIyWlLk6GJQsqaUBKTNV-1">
          <mxGeometry x="1170" y="470" width="160" height="140" as="geometry" />
        </mxCell>
        <mxCell id="jt-Nz1Gy_Yde08XFpU1Q-1" value="&lt;div&gt;CPF (FK)&lt;/div&gt;&lt;div&gt;rua&lt;/div&gt;&lt;div&gt;num&lt;/div&gt;&lt;div&gt;bairro&lt;/div&gt;&lt;div&gt;cidade&lt;br&gt;&lt;/div&gt;&lt;div&gt;&lt;br&gt;&lt;/div&gt;" style="align=left;strokeColor=none;fillColor=none;spacingLeft=4;fontSize=12;verticalAlign=top;resizable=0;rotatable=0;part=1;html=1;" vertex="1" parent="jt-Nz1Gy_Yde08XFpU1Q-0">
          <mxGeometry y="50" width="160" height="90" as="geometry" />
        </mxCell>
        <mxCell id="s9KsvUJ8rX1yy9qyIulK-0" value="Usuário" style="swimlane;childLayout=stackLayout;horizontal=1;startSize=50;horizontalStack=0;rounded=1;fontSize=14;fontStyle=0;strokeWidth=2;resizeParent=0;resizeLast=1;shadow=0;dashed=0;align=center;arcSize=4;whiteSpace=wrap;html=1;" vertex="1" parent="WIyWlLk6GJQsqaUBKTNV-1">
          <mxGeometry x="750" y="340" width="160" height="140" as="geometry" />
        </mxCell>
        <mxCell id="s9KsvUJ8rX1yy9qyIulK-1" value="&lt;div&gt;CPF (PK)&lt;/div&gt;&lt;div&gt;nome&lt;/div&gt;&lt;div&gt;email&lt;/div&gt;&lt;div&gt;endereço&lt;/div&gt;&lt;div&gt;telefone&lt;br&gt;&lt;/div&gt;" style="align=left;strokeColor=none;fillColor=none;spacingLeft=4;fontSize=12;verticalAlign=top;resizable=0;rotatable=0;part=1;html=1;" vertex="1" parent="s9KsvUJ8rX1yy9qyIulK-0">
          <mxGeometry y="50" width="160" height="90" as="geometry" />
        </mxCell>
        <mxCell id="jt-Nz1Gy_Yde08XFpU1Q-7" value="" style="endArrow=none;html=1;rounded=0;exitX=0.5;exitY=1;exitDx=0;exitDy=0;entryX=0.5;entryY=0;entryDx=0;entryDy=0;" edge="1" parent="WIyWlLk6GJQsqaUBKTNV-1" source="Hti1if6-eCWXI2BdiCpx-24" target="Hti1if6-eCWXI2BdiCpx-16">
          <mxGeometry relative="1" as="geometry">
            <mxPoint x="650" y="400" as="sourcePoint" />
            <mxPoint x="810" y="400" as="targetPoint" />
          </mxGeometry>
        </mxCell>
        <mxCell id="jt-Nz1Gy_Yde08XFpU1Q-8" value="" style="endArrow=none;html=1;rounded=0;exitX=0.5;exitY=1;exitDx=0;exitDy=0;entryX=0.5;entryY=0;entryDx=0;entryDy=0;" edge="1" parent="WIyWlLk6GJQsqaUBKTNV-1" source="Hti1if6-eCWXI2BdiCpx-1" target="Hti1if6-eCWXI2BdiCpx-23">
          <mxGeometry relative="1" as="geometry">
            <mxPoint x="450" y="390" as="sourcePoint" />
            <mxPoint x="450" y="460" as="targetPoint" />
          </mxGeometry>
        </mxCell>
        <mxCell id="jt-Nz1Gy_Yde08XFpU1Q-9" value="" style="endArrow=none;html=1;rounded=0;exitX=1;exitY=0;exitDx=0;exitDy=0;entryX=0;entryY=0;entryDx=0;entryDy=0;" edge="1" parent="WIyWlLk6GJQsqaUBKTNV-1" source="Hti1if6-eCWXI2BdiCpx-24" target="Hti1if6-eCWXI2BdiCpx-22">
          <mxGeometry relative="1" as="geometry">
            <mxPoint x="650" y="400" as="sourcePoint" />
            <mxPoint x="810" y="400" as="targetPoint" />
          </mxGeometry>
        </mxCell>
        <mxCell id="jt-Nz1Gy_Yde08XFpU1Q-11" value="" style="edgeStyle=entityRelationEdgeStyle;fontSize=12;html=1;endArrow=ERmany;rounded=0;entryX=0;entryY=0.5;entryDx=0;entryDy=0;exitX=1;exitY=0;exitDx=0;exitDy=0;" edge="1" parent="WIyWlLk6GJQsqaUBKTNV-1" source="s9KsvUJ8rX1yy9qyIulK-1" target="jt-Nz1Gy_Yde08XFpU1Q-17">
          <mxGeometry width="100" height="100" relative="1" as="geometry">
            <mxPoint x="680" y="450" as="sourcePoint" />
            <mxPoint x="780" y="350" as="targetPoint" />
          </mxGeometry>
        </mxCell>
        <mxCell id="jt-Nz1Gy_Yde08XFpU1Q-12" value="tem" style="shape=rhombus;perimeter=rhombusPerimeter;whiteSpace=wrap;html=1;align=center;" vertex="1" parent="WIyWlLk6GJQsqaUBKTNV-1">
          <mxGeometry x="970" y="230" width="120" height="60" as="geometry" />
        </mxCell>
        <mxCell id="jt-Nz1Gy_Yde08XFpU1Q-15" value="" style="edgeStyle=entityRelationEdgeStyle;fontSize=12;html=1;endArrow=ERmany;rounded=0;entryX=0;entryY=0.5;entryDx=0;entryDy=0;exitX=1;exitY=0;exitDx=0;exitDy=0;" edge="1" parent="WIyWlLk6GJQsqaUBKTNV-1" source="s9KsvUJ8rX1yy9qyIulK-1" target="jt-Nz1Gy_Yde08XFpU1Q-12">
          <mxGeometry width="100" height="100" relative="1" as="geometry">
            <mxPoint x="680" y="390" as="sourcePoint" />
            <mxPoint x="780" y="290" as="targetPoint" />
          </mxGeometry>
        </mxCell>
        <mxCell id="jt-Nz1Gy_Yde08XFpU1Q-17" value="tem" style="shape=rhombus;perimeter=rhombusPerimeter;whiteSpace=wrap;html=1;align=center;" vertex="1" parent="WIyWlLk6GJQsqaUBKTNV-1">
          <mxGeometry x="970" y="490" width="120" height="60" as="geometry" />
        </mxCell>
        <mxCell id="jt-Nz1Gy_Yde08XFpU1Q-19" value="" style="edgeStyle=entityRelationEdgeStyle;fontSize=12;html=1;endArrow=ERmandOne;startArrow=ERmandOne;rounded=0;entryX=0;entryY=0;entryDx=0;entryDy=0;exitX=1;exitY=0.5;exitDx=0;exitDy=0;" edge="1" parent="WIyWlLk6GJQsqaUBKTNV-1" source="jt-Nz1Gy_Yde08XFpU1Q-12" target="Hti1if6-eCWXI2BdiCpx-19">
          <mxGeometry width="100" height="100" relative="1" as="geometry">
            <mxPoint x="680" y="420" as="sourcePoint" />
            <mxPoint x="780" y="320" as="targetPoint" />
          </mxGeometry>
        </mxCell>
        <mxCell id="jt-Nz1Gy_Yde08XFpU1Q-20" value="" style="edgeStyle=entityRelationEdgeStyle;fontSize=12;html=1;endArrow=ERmany;rounded=0;exitX=0;exitY=0;exitDx=0;exitDy=0;entryX=1;entryY=0.5;entryDx=0;entryDy=0;" edge="1" parent="WIyWlLk6GJQsqaUBKTNV-1" source="jt-Nz1Gy_Yde08XFpU1Q-1" target="jt-Nz1Gy_Yde08XFpU1Q-17">
          <mxGeometry width="100" height="100" relative="1" as="geometry">
            <mxPoint x="680" y="480" as="sourcePoint" />
            <mxPoint x="780" y="380" as="targetPoint" />
          </mxGeometry>
        </mxCell>
      </root>
    </mxGraphModel>
  </diagram>
</mxfile>
